#!OML:ASF H:\Terrain\Patient Classification 1\Walking\liu\liu.ASF
:FULLY-SPECIFIED
:DEGREES
1
root 14.931860 31.987400 -73.464203 14.227120 2.629740 -7.335520
lowerback -8.598240 0.378808 1.878802
upperback -3.037720 0.370376 5.114040
thorax 1.690182 0.192065 4.214100
lowerneck -37.315800 -10.348280 -26.675200
upperneck 27.359400 -13.262140 33.847198
head 16.779881 -4.563840 14.340560
rclavicle 0.000000 0.000000
rhumerus -77.537598 34.910198 -168.206207
rradius 112.397797
rwrist -57.139198
rhand -66.403000 -51.502602
rfingers 14.250040
rthumb -12.817400 -111.268799
lclavicle 0.000000 0.000000
lhumerus -71.853401 -5.957100 172.508804
lradius 54.811199
lwrist 14.611140
lhand -26.600599 -46.042198
lfingers 14.250040
lthumb 25.607599 13.132480
rfemur -19.796021 9.453180 60.219799
rtibia 48.239601
rfoot 0.000000 0.000000
rtoes 0.000000
lfemur -81.379402 12.845160 -32.703201
ltibia 87.821198
lfoot -29.237200 16.693340
ltoes -23.697399
2
root 14.939580 31.981800 -73.219803 13.947280 2.353540 -6.855380
lowerback -8.058940 0.249434 1.373234
upperback -3.486820 0.244932 4.818820
thorax 0.931660 0.132690 4.184700
lowerneck -36.618401 -9.894240 -25.732000
upperneck 27.961599 -12.910160 33.196201
head 16.732620 -4.426300 14.004520
rclavicle 0.000000 0.000000
rhumerus -78.592400 34.924198 -168.979202
rradius 113.835403
rwrist -59.567200
rhand -65.017799 -53.408401
rfingers 14.250040
rthumb -11.480200 -113.212799
lclavicle 0.000000 0.000000
lhumerus -73.226997 -6.112160 172.403198
lradius 55.209999
lwrist 14.751800
lhand -26.505400 -47.355598
lfingers 14.250040
lthumb 25.699200 11.813440
rfemur -18.210461 9.986620 59.773399
rtibia 47.585800
rfoot 0.000000 0.000000
rtoes 0.000000
lfemur -81.262802 11.929780 -32.837200
ltibia 83.530197
lfoot -28.879200 15.589240
ltoes -23.302799
3
root 14.937300 31.963400 -72.984398 14.149920 2.041240 -6.842080
lowerback -8.505360 0.416982 1.068278
upperback -3.535660 0.471360 4.871080
thorax 1.122086 0.247110 4.422260
lowerneck -36.971600 -9.848780 -25.160801
upperneck 28.912600 -13.015040 32.862000
head 17.094440 -4.445580 13.800700
rclavicle -0.000000 0.000000
rhumerus -78.731796 34.706402 -168.920593
rradius 115.250000
rwrist -62.304001
rhand -62.924999 -54.547798
rfingers 14.250040
rthumb -9.459440 -114.402199
lclavicle -0.000000 0.000000
lhumerus -73.116997 -6.119020 172.701401
lradius 54.775600
lwrist 14.086360
lhand -25.705200 -47.781601
lfingers 14.250040
lthumb 26.470600 11.338080
rfemur -16.866100 10.716200 59.849201
rtibia 46.528000
rfoot 0.000000 0.000000
rtoes 0.000000
lfemur -81.955803 11.302460 -32.458401
ltibia 79.811203
lfoot -28.853201 14.442360
ltoes -22.158800
4
root 14.948360 31.953800 -72.737801 14.292080 1.606494 -7.374160
lowerback -9.230980 0.946934 1.640564
upperback -3.408340 1.131784 5.164540
thorax 1.637178 0.574854 4.442240
lowerneck -35.764000 -10.503360 -27.150000
upperneck 27.775000 -13.536360 33.608799
head 16.688440 -4.803640 14.310760
rclavicle 0.000000 0.000000
rhumerus -78.723396 34.389400 -168.258606
rradius 116.181198
rwrist -64.394402
rhand -63.030998 -55.205200
rfingers 14.250040
rthumb -9.561800 -115.057198
lclavicle 0.000000 0.000000
lhumerus -72.997398 -7.574780 174.289398
lradius 55.000000
lwrist 14.542940
lhand -23.811800 -46.877800
lfingers 14.250040
lthumb 28.295401 12.118860
rfemur -15.473920 10.840180 60.421200
rtibia 45.500198
rfoot 0.000000 0.000000
rtoes 0.000000
lfemur -82.393204 11.156120 -31.733000
ltibia 75.873199
lfoot -27.724600 14.569840
ltoes -22.042400
5
root 14.975840 31.952200 -72.473602 14.064060 1.018248 -7.482520
lowerback -9.590200 0.902030 1.767578
upperback -3.036580 1.044832 5.288500
thorax 2.222240 0.528720 4.500480
lowerneck -36.118801 -10.175200 -27.738800
upperneck 27.695000 -13.035060 34.470402
head 16.698940 -4.508920 14.801720
rclavicle 0.000000 0.000000
rhumerus -78.230598 35.386200 -168.516602
rradius 117.013000
rwrist -66.172401
rhand -63.187000 -57.583401
rfingers 14.250040
rthumb -9.712360 -117.432198
lclavicle 0.000000 0.000000
lhumerus -73.237602 -8.570140 175.369400
lradius 55.989799
lwrist 15.762400
lhand -23.537001 -45.179401
lfingers 14.250040
lthumb 28.560200 13.798660
rfemur -13.538780 10.795520 60.462002
rtibia 44.257401
rfoot 0.000000 0.000000
rtoes 0.000000
lfemur -82.177002 10.496340 -31.240999
ltibia 72.008202
lfoot -27.023399 15.180640
ltoes -21.444201
